P2
20 20
255
56 56 56 56 56 56 56 56 56 56 56 56 56 56 56 56 56 56 56 32 
56 56 56 56 56 56 56 56 56 56 56 56 56 56 56 56 56 56 56 32 
56 56 56 56 56 56 56 56 56 56 56 56 56 56 56 56 56 56 56 32 
56 56 56 56 56 56 56 56 56 56 56 56 56 56 56 56 56 56 56 32 
56 56 56 56 56 56 56 56 56 56 56 56 56 56 56 56 56 56 56 32 
56 56 56 56 56 56 56 56 56 56 56 56 56 56 56 56 56 56 56 32 
56 56 56 56 56 56 56 56 56 56 56 56 56 56 56 56 56 56 56 32 
56 56 56 56 56 56 56 56 56 56 56 56 56 56 56 56 56 56 56 32 
56 56 56 56 56 56 56 56 56 56 56 56 56 56 56 56 56 56 56 32 
56 56 56 56 56 56 56 56 56 56 56 56 56 56 56 56 56 56 56 32 
56 56 56 56 56 56 56 56 56 56 56 56 56 56 56 56 56 56 56 32 
56 56 56 56 56 56 56 56 56 56 56 56 56 56 56 56 56 56 56 32 
56 56 56 56 56 56 56 56 56 56 56 56 56 56 56 56 56 56 56 32 
56 56 56 56 56 56 56 56 56 56 56 56 56 56 56 56 56 56 56 32 
56 56 56 56 56 56 56 56 56 56 56 56 56 56 56 56 56 56 56 32 
56 56 56 56 56 56 56 56 56 56 56 56 56 56 56 56 56 56 56 32 
56 56 56 56 56 56 56 56 56 56 56 56 56 56 56 56 56 56 56 32 
56 56 56 56 56 56 56 56 56 56 56 56 56 56 56 56 56 56 56 32 
56 56 56 56 56 56 56 56 56 56 56 56 56 56 56 56 56 56 56 32 
8 8 8 8 8 8 8 8 8 8 8 8 8 8 8 8 8 8 8 0 
